<?xml version="1.0" encoding="UTF-8"?>
<svg width="300px" height="300px" viewBox="0 0 300 300" version="1.1" xmlns="http://www.w3.org/2000/svg" xmlns:xlink="http://www.w3.org/1999/xlink">
    <!-- Generator: Sketch 51.1 (57501) - http://www.bohemiancoding.com/sketch -->
    <title>iron</title>
    <desc>Created with Sketch.</desc>
    <defs>
        <linearGradient x1="50%" y1="0%" x2="50%" y2="100%" id="linearGradient-1">
            <stop stop-color="#FF0079" offset="0%"></stop>
            <stop stop-color="#FF0044" offset="100%"></stop>
        </linearGradient>
    </defs>
    <g id="Page-1" stroke="none" stroke-width="1" fill="none" fill-rule="evenodd">
        <g id="Iron" transform="translate(-705.000000, -101.000000)" fill-rule="nonzero">
            <g id="iron" transform="translate(705.000000, 101.000000)">
                <rect id="Rectangle-2" fill="url(#linearGradient-1)" x="0" y="0" width="300" height="300" rx="70"></rect>
                <polygon id="Fe" fill="#FFFFFF" points="75 93 145.483629 93 145.483629 112.859485 95.9587884 112.859485 95.9587884 139.855972 140.51562 139.855972 140.51562 159.715457 95.9587884 159.715457 95.9587884 204.088993 75 204.088993"></polygon>
                <path d="M223.757998,185.78103 C220.238974,191.98715 215.503888,197.003689 209.552597,200.830796 C203.601306,204.657904 196.33049,206.571429 187.739932,206.571429 C181.943892,206.571429 176.587811,205.56295 171.671527,203.54596 C166.755244,201.528971 162.485904,198.710401 158.863379,195.090164 C155.240854,191.469927 152.420502,187.203284 150.402238,182.290105 C148.383975,177.376927 147.374858,171.972512 147.374858,166.076698 C147.374858,160.594625 148.3581,155.397078 150.324613,150.483899 C152.291127,145.570721 155.033854,141.278219 158.552878,137.606265 C162.071902,133.93431 166.237743,131.012306 171.050526,128.840164 C175.863309,126.668022 181.167641,125.581967 186.96368,125.581967 C193.070222,125.581967 198.503928,126.590447 203.26496,128.607436 C208.025993,130.624425 212.010711,133.417137 215.219232,136.985656 C218.427753,140.554175 220.859984,144.769101 222.515995,149.630562 C224.172007,154.492023 225,159.767146 225,165.456089 L225,167.317916 C224.8965,167.938528 224.84475,168.507413 224.84475,169.02459 C224.74125,169.541767 224.689499,170.110653 224.689499,170.731265 L167.402145,170.731265 C167.816147,173.834325 168.670015,176.497744 169.963774,178.721604 C171.257533,180.945464 172.86177,182.807272 174.776533,184.307084 C176.691296,185.806897 178.787154,186.892951 181.06417,187.565281 C183.341185,188.237611 185.669916,188.57377 188.050432,188.57377 C192.707964,188.57377 196.563308,187.513574 199.616579,185.39315 C202.669849,183.272726 205.076205,180.609306 206.835717,177.40281 L223.757998,185.78103 Z M205.283214,156.302108 C205.179714,154.957448 204.739842,153.457658 203.963586,151.802693 C203.187331,150.147728 202.048841,148.596221 200.54808,147.148126 C199.04732,145.700032 197.184335,144.510543 194.95907,143.579625 C192.733805,142.648707 190.068702,142.183255 186.96368,142.183255 C182.616651,142.183255 178.787182,143.424461 175.475159,145.906909 C172.163137,148.389357 169.834406,151.854388 168.488897,156.302108 L205.283214,156.302108 Z" id="Combined-Shape" fill="#FFFFFF"></path>
            </g>
        </g>
    </g>
</svg>