<?xml version="1.0" encoding="UTF-8"?>
<svg width="200px" height="200px" viewBox="0 0 200 200" version="1.1" xmlns="http://www.w3.org/2000/svg" xmlns:xlink="http://www.w3.org/1999/xlink">
    <!-- Generator: Sketch 48.2 (47327) - http://www.bohemiancoding.com/sketch -->
    <title>logo</title>
    <desc>Created with Sketch.</desc>
    <defs>
        <linearGradient x1="50%" y1="0%" x2="50%" y2="100%" id="linearGradient-1">
            <stop stop-color="#FF5700" offset="0%"></stop>
            <stop stop-color="#FF0077" offset="100%"></stop>
        </linearGradient>
    </defs>
    <g id="Symbols" stroke="none" stroke-width="1" fill="none" fill-rule="evenodd">
        <g id="logo">
            <rect id="Rectangle" stroke-opacity="0.25" stroke="#000000" x="0.5" y="0.5" width="199" height="199" rx="50"></rect>
            <path d="M66.2734375,134 L49.0703125,134 L49.0703125,66.359375 L95.1015625,66.359375 L95.1015625,80.1875 L66.2734375,80.1875 L66.2734375,95.609375 L92.4296875,95.609375 L92.4296875,108.78125 L66.2734375,108.78125 L66.2734375,134 Z M129.695312,92.375 C124.257812,92.375 120.460938,96.171875 120.039062,102.078125 L138.976562,102.078125 C138.695312,95.984375 135.226562,92.375 129.695312,92.375 Z M139.585938,118.625 L154.726562,118.625 C152.898438,128.796875 143.335938,135.21875 129.835938,135.21875 C113.195312,135.21875 103.632812,125.375 103.632812,108.265625 C103.632812,91.0625 113.429688,80.609375 129.601562,80.609375 C145.679688,80.609375 155.054688,90.359375 155.054688,107 L155.054688,111.59375 L119.945312,111.59375 L119.945312,112.4375 C120.085938,119.234375 123.976562,123.453125 130.304688,123.453125 C135.132812,123.453125 138.460938,121.671875 139.585938,118.625 Z" id="Fe" fill="url(#linearGradient-1)"></path>
        </g>
    </g>
</svg>