<?xml version="1.0" encoding="UTF-8"?>
<svg width="40px" height="40px" viewBox="0 0 40 40" version="1.1" xmlns="http://www.w3.org/2000/svg" xmlns:xlink="http://www.w3.org/1999/xlink">
    <!-- Generator: Sketch 51.1 (57501) - http://www.bohemiancoding.com/sketch -->
    <title>iron</title>
    <desc>Created with Sketch.</desc>
    <defs>
        <linearGradient x1="50%" y1="0%" x2="50%" y2="100%" id="linearGradient-1">
            <stop stop-color="#B8B8B8" offset="0%"></stop>
            <stop stop-color="#8D8D8D" offset="100%"></stop>
        </linearGradient>
    </defs>
    <g id="Page-1" stroke="none" stroke-width="1" fill="none" fill-rule="evenodd">
        <g id="Desktop-HD" transform="translate(-203.000000, -92.000000)">
            <g id="iron" transform="translate(203.000000, 92.000000)">
                <rect id="Powerpoint" fill="url(#linearGradient-1)" fill-rule="nonzero" x="0" y="0" width="40" height="40" rx="8"></rect>
                <path d="M9,13 L18.66,13 L18.64,15.34 L11.68,15.34 L11.68,19.12 L18.02,19.12 L18.02,21.46 L11.68,21.46 L11.68,27 L9,27 L9,13 Z M25.02,16.22 C26.7266752,16.22 28.0099957,16.7066618 28.87,17.68 C29.7300043,18.6533382 30.16,20.0199912 30.16,21.78 C30.16,22.1266684 30.1533334,22.3866658 30.14,22.56 L22.24,22.56 C22.4133342,23.3200038 22.7699973,23.9166645 23.31,24.35 C23.8500027,24.7833355 24.5133294,25 25.3,25 C25.8466694,25 26.3699975,24.8966677 26.87,24.69 C27.3700025,24.4833323 27.8066648,24.1866686 28.18,23.8 L29.58,25.26 C29.046664,25.8466696 28.3966705,26.2999984 27.63,26.62 C26.8633295,26.9400016 26.013338,27.1 25.08,27.1 C23.9866612,27.1 23.0233375,26.8733356 22.19,26.42 C21.3566625,25.9666644 20.7133356,25.3300041 20.26,24.51 C19.8066644,23.6899959 19.58,22.746672 19.58,21.68 C19.58,20.613328 19.8099977,19.6666708 20.27,18.84 C20.7300023,18.0133292 21.3733292,17.3700023 22.2,16.91 C23.0266708,16.4499977 23.9666614,16.22 25.02,16.22 Z M27.78,20.82 C27.7533332,20.0333294 27.4933358,19.406669 27,18.94 C26.5066642,18.473331 25.8533374,18.24 25.04,18.24 C24.2799962,18.24 23.6433359,18.4699977 23.13,18.93 C22.6166641,19.3900023 22.3000006,20.019996 22.18,20.82 L27.78,20.82 Z" id="Fe" fill="#FFFFFF"></path>
            </g>
        </g>
    </g>
</svg>